<svg width="32" height="32" viewBox="0 0 32 32" fill="none" xmlns="http://www.w3.org/2000/svg">
  <rect width="32" height="32" rx="6" fill="#F8F4E3"/>
  <path d="M16 4C18.5 4 21 5.5 21 8C21 10.5 18.5 12 16 12C13.5 12 11 10.5 11 8C11 5.5 13.5 4 16 4Z" fill="#74B288"/>
  <ellipse cx="16" cy="20" rx="8" ry="6" fill="#A2B089"/>
  <circle cx="14" cy="9" r="1" fill="#2A4D3A"/>
  <path d="M12 16C12 16 14 18 16 18C18 18 20 16 20 16" stroke="#2A4D3A" stroke-width="1.5" stroke-linecap="round"/>
  <path d="M8 24C8 26 10 28 16 28C22 28 24 26 24 24" stroke="#74B288" stroke-width="2" stroke-linecap="round"/>
</svg>